name rise34.3697peak60.0498fall86.3158.mot
datacolumns 19
datarows 32
range 21.53324800000000 21.58491400000000
endheader
time	ground_force1_vx	ground_force1_vy	ground_force1_vz	ground_force1_px	ground_force1_py	ground_force1_pz	ground_force2_vx	ground_force2_vy	ground_force2_vz	ground_force2_px	ground_force2_py	ground_force2_pz	ground_torque1_x	ground_torque1_y	ground_torque1_z	ground_torque2_x	ground_torque2_y	ground_torque2_z	
21.53324800000000	-7.66477500000000	45.71072100000000	-15.56627000000000	0.39564300000000	0.00000000000000	0.06103600000000	-52.19457900000000	777.36399800000004	-55.76520700000000	0.17315700000000	0.00000000000000	-0.12131900000000	0.00000000000000	-13.30998300000000	0.00000000000000	0.00000000000000	-28.43157900000000	0.00000000000000	
21.53491700000000	-8.12740100000000	52.14703600000000	-17.15033100000000	0.39703800000000	0.00000000000000	0.06222300000000	-52.97260900000000	774.86645299999998	-55.51516600000000	0.17223400000000	0.00000000000000	-0.12126500000000	0.00000000000000	-14.70798200000000	0.00000000000000	0.00000000000000	-28.46636500000000	0.00000000000000	
21.53658100000000	-8.41993200000000	58.49789300000000	-18.54665000000000	0.39850300000000	0.00000000000000	0.06333000000000	-53.76979400000000	772.27961700000003	-55.24602200000000	0.17130900000000	0.00000000000000	-0.12120600000000	0.00000000000000	-15.95880700000000	0.00000000000000	0.00000000000000	-28.50239300000000	0.00000000000000	
21.53825600000000	-8.53171700000000	64.70040700000000	-19.73163000000000	0.40002300000000	0.00000000000000	0.06436600000000	-54.58526900000000	769.60119499999996	-54.95713300000000	0.17038200000000	0.00000000000000	-0.12114400000000	0.00000000000000	-17.04227800000000	0.00000000000000	0.00000000000000	-28.53933700000000	0.00000000000000	
21.53992100000000	-8.46027900000000	70.71758400000000	-20.69410700000000	0.40158700000000	0.00000000000000	0.06534000000000	-55.41807300000000	766.82881099999997	-54.64787200000000	0.16945200000000	0.00000000000000	-0.12107700000000	0.00000000000000	-17.94844500000000	0.00000000000000	0.00000000000000	-28.57685100000000	0.00000000000000	
21.54158400000000	-8.21048100000000	76.53756900000000	-21.43446300000000	0.40318500000000	0.00000000000000	0.06625900000000	-56.26714900000000	763.96000800000002	-54.31763100000000	0.16852200000000	0.00000000000000	-0.12100600000000	0.00000000000000	-18.67693000000000	0.00000000000000	0.00000000000000	-28.61456900000000	0.00000000000000	
21.54325100000000	-7.79322500000000	82.17096200000000	-21.96294200000000	0.40480900000000	0.00000000000000	0.06712700000000	-57.13134200000000	760.99225500000000	-53.96582500000000	0.16759200000000	0.00000000000000	-0.12093100000000	0.00000000000000	-19.23560300000000	0.00000000000000	0.00000000000000	-28.65210700000000	0.00000000000000	
21.54491400000000	-7.22388600000000	87.64673400000000	-22.29744400000000	0.40645200000000	0.00000000000000	0.06795000000000	-58.00940200000000	757.92295300000001	-53.59189500000000	0.16666100000000	0.00000000000000	-0.12085100000000	0.00000000000000	-19.63879800000000	0.00000000000000	0.00000000000000	-28.68906200000000	0.00000000000000	
21.54658800000000	-6.52064400000000	93.00734300000001	-22.46107700000000	0.40810500000000	0.00000000000000	0.06873300000000	-58.89998300000000	754.74944400000004	-53.19531400000000	0.16573100000000	0.00000000000000	-0.12076600000000	0.00000000000000	-19.90531000000000	0.00000000000000	0.00000000000000	-28.72501900000000	0.00000000000000	
21.54826500000000	-5.70287700000000	98.30358000000000	-22.47970700000000	0.40976400000000	0.00000000000000	0.06948000000000	-59.80164900000000	751.46901600000001	-52.77558700000000	0.16480300000000	0.00000000000000	-0.12067700000000	0.00000000000000	-20.05636400000000	0.00000000000000	0.00000000000000	-28.75954200000000	0.00000000000000	
21.54992500000000	-4.78972600000000	103.58962000000000	-22.37970500000000	0.41142300000000	0.00000000000000	0.07019200000000	-60.71286800000000	748.07891099999995	-52.33225900000000	0.16387600000000	0.00000000000000	-0.12058300000000	0.00000000000000	-20.11372900000000	0.00000000000000	0.00000000000000	-28.79218700000000	0.00000000000000	
21.55158600000000	-3.79892800000000	108.91862600000000	-22.18603900000000	0.41307800000000	0.00000000000000	0.07087300000000	-61.63202100000000	744.57633399999997	-51.86491400000000	0.16295200000000	0.00000000000000	-0.12048400000000	0.00000000000000	-20.09810700000000	0.00000000000000	0.00000000000000	-28.82249300000000	0.00000000000000	
21.55325100000000	-2.74595400000000	114.33917200000000	-21.92080200000000	0.41472300000000	0.00000000000000	0.07152600000000	-62.55740200000000	740.95846500000005	-51.37318100000000	0.16203200000000	0.00000000000000	-0.12038000000000	0.00000000000000	-20.02787100000000	0.00000000000000	0.00000000000000	-28.84999000000000	0.00000000000000	
21.55491400000000	-1.64346800000000	119.89259699999999	-21.60220800000000	0.41635600000000	0.00000000000000	0.07215300000000	-63.48721800000000	737.22246099999995	-50.85673900000000	0.16111400000000	0.00000000000000	-0.12027100000000	0.00000000000000	-19.91818800000000	0.00000000000000	0.00000000000000	-28.87419700000000	0.00000000000000	
21.55658100000000	-0.50109300000000	125.61134500000000	-21.24406200000000	0.41797200000000	0.00000000000000	0.07275500000000	-64.41959600000000	733.36547099999996	-50.31531700000000	0.16020100000000	0.00000000000000	-0.12015600000000	0.00000000000000	-19.78054300000000	0.00000000000000	0.00000000000000	-28.89462700000000	0.00000000000000	
21.55825500000000	0.67455700000000	131.51822799999999	-20.85565000000000	0.41956800000000	0.00000000000000	0.07333400000000	-65.35258600000000	729.38464899999997	-49.74870000000000	0.15929200000000	0.00000000000000	-0.12003700000000	0.00000000000000	-19.62260400000000	0.00000000000000	0.00000000000000	-28.91078400000000	0.00000000000000	
21.55991700000000	1.87962600000000	137.62650800000000	-20.44197900000000	0.42114200000000	0.00000000000000	0.07389200000000	-66.28416000000000	725.27715699999999	-49.15673100000000	0.15838900000000	0.00000000000000	-0.11991300000000	0.00000000000000	-19.44841000000000	0.00000000000000	0.00000000000000	-28.92216700000000	0.00000000000000	
21.56158200000000	3.11259900000000	143.94062900000000	-20.00430400000000	0.42269000000000	0.00000000000000	0.07443000000000	-67.21222299999999	721.04018299999996	-48.53931400000000	0.15749100000000	0.00000000000000	-0.11978300000000	0.00000000000000	-19.25878200000000	0.00000000000000	0.00000000000000	-28.92827200000000	0.00000000000000	
21.56325200000000	4.37379900000000	150.45744400000001	-19.54082300000000	0.42421000000000	0.00000000000000	0.07494900000000	-68.13461300000000	716.67095200000006	-47.89641600000000	0.15660000000000	0.00000000000000	-0.11964800000000	0.00000000000000	-19.05190300000000	0.00000000000000	0.00000000000000	-28.92859500000000	0.00000000000000	
21.56492200000000	5.66483100000000	157.16773599999999	-19.04748100000000	0.42570000000000	0.00000000000000	0.07544900000000	-69.04910700000001	712.16673400000002	-47.22807200000000	0.15571400000000	0.00000000000000	-0.11950800000000	0.00000000000000	-18.82399100000000	0.00000000000000	0.00000000000000	-28.92262700000000	0.00000000000000	
21.56658700000000	6.98803300000000	164.05786599999999	-18.51878800000000	0.42715800000000	0.00000000000000	0.07593300000000	-69.95342800000000	707.52486699999997	-46.53438500000000	0.15483600000000	0.00000000000000	-0.11936300000000	0.00000000000000	-18.56999000000000	0.00000000000000	0.00000000000000	-28.90986600000000	0.00000000000000	
21.56824900000000	8.34597900000000	171.11141799999999	-17.94859700000000	0.42858200000000	0.00000000000000	0.07640000000000	-70.84524600000000	702.74276199999997	-45.81552800000000	0.15396500000000	0.00000000000000	-0.11921200000000	0.00000000000000	-18.28424300000000	0.00000000000000	0.00000000000000	-28.88980800000000	0.00000000000000	
21.56992000000000	9.74105100000000	178.31070099999999	-17.33078800000000	0.42997100000000	0.00000000000000	0.07685100000000	-71.72219000000000	697.81792099999996	-45.07174500000000	0.15310200000000	0.00000000000000	-0.11905600000000	0.00000000000000	-17.96107200000000	0.00000000000000	0.00000000000000	-28.86195800000000	0.00000000000000	
21.57158900000000	11.17510400000000	185.63803999999999	-16.65982200000000	0.43132100000000	0.00000000000000	0.07728700000000	-72.58184900000001	692.74795600000004	-44.30335700000000	0.15224700000000	0.00000000000000	-0.11889400000000	0.00000000000000	-17.59527700000000	0.00000000000000	0.00000000000000	-28.82582500000000	0.00000000000000	
21.57325500000000	12.64923000000000	193.07678600000000	-15.93116000000000	0.43263300000000	0.00000000000000	0.07770900000000	-73.42178000000000	687.53060100000005	-43.51075700000000	0.15140100000000	0.00000000000000	-0.11872700000000	0.00000000000000	-17.18249300000000	0.00000000000000	0.00000000000000	-28.78092600000000	0.00000000000000	
21.57491500000000	14.16362400000000	200.61205000000001	-15.14153100000000	0.43390400000000	0.00000000000000	0.07811700000000	-74.23951599999999	682.16372899999999	-42.69441200000000	0.15056300000000	0.00000000000000	-0.11855500000000	0.00000000000000	-16.71944100000000	0.00000000000000	0.00000000000000	-28.72679000000000	0.00000000000000	
21.57658400000000	15.71752900000000	208.23113400000000	-14.28906100000000	0.43513400000000	0.00000000000000	0.07851100000000	-75.03257100000000	676.64537199999995	-41.85486700000000	0.14973500000000	0.00000000000000	-0.11837800000000	0.00000000000000	-16.20404900000000	0.00000000000000	0.00000000000000	-28.66295600000000	0.00000000000000	
21.57825600000000	17.30927000000000	215.92370600000001	-13.37329100000000	0.43632100000000	0.00000000000000	0.07889200000000	-75.79844799999999	670.97373400000004	-40.99274000000000	0.14891600000000	0.00000000000000	-0.11819500000000	0.00000000000000	-15.63547400000000	0.00000000000000	0.00000000000000	-28.58897400000000	0.00000000000000	
21.57992000000000	18.93633600000000	223.68175400000001	-12.39508500000000	0.43746500000000	0.00000000000000	0.07926000000000	-76.53464500000000	665.14720799999998	-40.10872500000000	0.14810800000000	0.00000000000000	-0.11800700000000	0.00000000000000	-15.01403800000000	0.00000000000000	0.00000000000000	-28.50441100000000	0.00000000000000	
21.58158400000000	20.59551000000000	231.49936800000000	-11.35647800000000	0.43856400000000	0.00000000000000	0.07961500000000	-77.23866599999999	659.16439200000002	-39.20358800000000	0.14730900000000	0.00000000000000	-0.11781400000000	0.00000000000000	-14.34109600000000	0.00000000000000	0.00000000000000	-28.40884900000000	0.00000000000000	
21.58325100000000	22.28301800000000	239.37239299999999	-10.26046500000000	0.43961700000000	0.00000000000000	0.07995900000000	-77.90802100000001	653.02410699999996	-38.27817000000000	0.14652100000000	0.00000000000000	-0.11761600000000	0.00000000000000	-13.61886300000000	0.00000000000000	0.00000000000000	-28.30188700000000	0.00000000000000	
21.58491400000000	23.99469600000000	247.29801900000001	-9.11078000000000	0.44062400000000	0.00000000000000	0.08029000000000	-78.54024099999999	646.72540500000002	-37.33338300000000	0.14574300000000	0.00000000000000	-0.11741200000000	0.00000000000000	-12.85022300000000	0.00000000000000	0.00000000000000	-28.18314300000000	0.00000000000000	
